<?xml version="1.0" standalone="no"?>
<!DOCTYPE svg PUBLIC "-//W3C//DTD SVG 20010904//EN"
 "http://www.w3.org/TR/2001/REC-SVG-20010904/DTD/svg10.dtd">
<svg version="1.0" xmlns="http://www.w3.org/2000/svg"
 width="16.000000pt" height="16.000000pt" viewBox="0 0 16.000000 16.000000"
 preserveAspectRatio="xMidYMid meet">
<metadata>
Created by potrace 1.11, written by Peter Selinger 2001-2013
</metadata>
<g transform="translate(0.000000,16.000000) scale(0.018182,-0.018182)"
fill="#000000" stroke="none">
<path d="M297 712 l42 -17 -37 -25 c-57 -38 -83 -50 -93 -44 -15 9 -10 46 9
68 17 21 17 21 -5 2 -12 -10 -27 -34 -34 -53 -9 -28 -8 -40 9 -74 17 -33 18
-47 10 -77 -21 -76 9 -165 79 -236 25 -26 30 -35 16 -27 -20 10 -23 9 -23 -9
0 -26 25 -36 53 -21 16 8 32 8 57 1 46 -13 87 -12 132 4 32 11 39 11 49 0 6
-8 17 -14 24 -14 19 0 38 28 31 46 -6 16 -8 15 -21 -2 -8 -10 -15 -14 -15 -8
0 5 14 23 31 40 62 58 91 153 71 228 -9 32 -8 43 9 69 24 40 24 74 0 111 -25
37 -57 55 -96 55 -26 -1 -24 -3 18 -16 53 -16 82 -50 72 -82 -6 -20 -7 -20
-41 7 -19 15 -37 27 -41 27 -13 1 -42 19 -42 28 -1 4 -1 12 -1 17 0 15 -14 12
-36 -7 -14 -13 -36 -18 -84 -18 -53 0 -68 4 -87 23 -15 15 -33 22 -60 21 l-38
0 42 -17z m153 -112 c0 -5 -4 -10 -10 -10 -5 0 -10 5 -10 10 0 6 5 10 10 10 6
0 10 -4 10 -10z m-80 -20 c0 -5 -2 -10 -4 -10 -3 0 -8 5 -11 10 -3 6 -1 10 4
10 6 0 11 -4 11 -10z m160 6 c0 -3 -4 -8 -10 -11 -5 -3 -10 -1 -10 4 0 6 5 11
10 11 6 0 10 -2 10 -4z m-79 -70 c-1 -26 3 -53 9 -61 17 -20 5 -45 -20 -45
-25 0 -37 25 -20 45 6 7 11 33 10 57 -2 58 -2 60 12 56 8 -3 11 -21 9 -52z
m-131 4 c0 -5 -2 -10 -4 -10 -3 0 -8 5 -11 10 -3 6 -1 10 4 10 6 0 11 -4 11
-10z m260 6 c0 -3 -4 -8 -10 -11 -5 -3 -10 -1 -10 4 0 6 5 11 10 11 6 0 10 -2
10 -4z m-178 -131 c0 -14 -29 -31 -38 -22 -9 8 16 39 28 35 5 -2 10 -8 10 -13z"/>
</g>
</svg>
